<svg width="756" height="623" viewBox="0 0 756 623" fill="none" xmlns="http://www.w3.org/2000/svg">
<g clip-path="url(#clip0_2_81)">
<path d="M71.4408 620.114H231.739V614.642C231.739 609.891 230.042 605.334 227.022 601.975C224.002 598.615 219.906 596.728 215.635 596.728H87.5445C83.2735 596.728 79.1775 598.615 76.1575 601.975C73.1374 605.334 71.4408 609.891 71.4408 614.642V620.114Z" fill="#E6E6E6"/>
<path d="M155.341 597.819L150.466 595.636C201.472 454.793 196.558 277.11 153.442 124.688C148.32 107.028 147.951 88.0877 152.379 70.197C156.808 52.3063 165.84 36.2459 178.367 23.9917C203.393 -0.852484 237.895 -6.90475 268.414 8.19521C298.538 23.1025 302.69 49.0687 302.69 74.9085H297.435C297.435 47.3258 292.136 26.3334 266.277 13.5373C237.674 -0.614104 205.33 5.06204 181.866 28.3547C170.101 39.864 161.617 54.9484 157.457 71.752C153.298 88.5557 153.645 106.345 158.455 122.933C202.069 277.114 206.695 456.018 155.341 597.819Z" fill="#E6E6E6"/>
<path d="M298.749 161.148C288.589 161.148 280.354 151.986 280.354 140.684C280.354 129.382 288.589 120.221 298.749 120.221C308.908 120.221 317.143 129.382 317.143 140.684C317.143 151.986 308.908 161.148 298.749 161.148Z" fill="#E6E6E6"/>
<path d="M327.078 176.358V137.584H321.659V176.358C320.104 177.057 318.817 178.337 318.017 179.976C317.217 181.616 316.955 183.514 317.276 185.345C317.596 187.176 318.479 188.827 319.773 190.013C321.067 191.2 322.692 191.848 324.369 191.848C326.046 191.848 327.67 191.2 328.964 190.013C330.258 188.827 331.141 187.176 331.462 185.345C331.782 183.514 331.52 181.616 330.72 179.976C329.92 178.337 328.633 177.057 327.078 176.358Z" fill="#E6E6E6"/>
<path d="M353.276 107.796C353.267 98.883 350.08 90.3378 344.415 84.0353C338.749 77.7328 331.068 74.1876 323.056 74.1775H273.127C265.112 74.1775 257.426 77.7194 251.758 84.0241C246.091 90.3288 242.907 98.8799 242.907 107.796C242.907 116.712 246.091 125.263 251.758 131.568C257.426 137.873 265.112 141.415 273.127 141.415H323.056C331.068 141.405 338.749 137.859 344.415 131.557C350.08 125.254 353.267 116.709 353.276 107.796Z" fill="#9128E2"/>
<path d="M423.624 315.984C418.611 244.635 392.98 210.641 409.392 189.323C425.113 168.903 469.395 173.122 497.834 192.716C574.54 245.567 602.642 456.211 503.933 559.126C410.134 656.922 232.368 625.6 192.862 545.555C183.644 526.879 176.321 494.138 189.812 474.309C223.306 425.08 345.083 514.247 399.226 458.477C431.313 425.425 426.375 355.14 423.624 315.984Z" fill="#F2F2F2"/>
<path d="M364.989 280.538C366.852 281.491 368.307 283.215 369.045 285.344C369.782 287.473 369.744 289.838 368.938 291.936C368.768 292.359 368.567 292.766 368.337 293.153L384.801 317.608L376.586 331.268L357.288 295.055C355.92 293.868 354.945 292.212 354.513 290.344C354.08 288.476 354.216 286.502 354.899 284.728C355.296 283.724 355.867 282.816 356.58 282.057C357.293 281.298 358.133 280.702 359.052 280.304C359.972 279.906 360.952 279.713 361.939 279.737C362.925 279.761 363.898 280 364.801 280.442C364.864 280.473 364.927 280.505 364.989 280.538Z" fill="#FFB6B6"/>
<path d="M365.002 322.702C363.924 323.765 366.913 325.077 370.075 323.008C370.98 322.408 371.366 322.16 371.467 322.318C371.722 322.714 370.237 325.631 370.634 332.111C370.878 335.979 376.652 343.251 383.209 350.342C392.073 359.932 402.381 369.182 402.381 369.182L406 365.959L443.949 332.111L450.354 322.25C449.767 318.356 448.886 314.524 447.721 310.794C446.115 305.632 444.206 300.592 442.007 295.708C440.828 293.05 439.619 290.517 438.46 288.188L418.128 313.112L401.09 333.989C401.09 333.989 396.129 325.1 392.287 322.68C391.797 322.332 391.239 322.119 390.66 322.058C386.777 321.854 386.543 319.502 391.047 314.379C395.55 309.256 389.867 314.04 385.862 312.66C381.857 311.28 385.862 312.66 385.018 309.211C384.175 305.762 372.941 298.841 372.941 298.841L372.474 299.304L363.985 307.639L361.556 310.025C361.556 310.025 364.209 318.122 364.941 319.83C365.673 321.538 366.069 321.628 365.002 322.702Z" fill="#9128E2"/>
<path d="M141.237 479.801L140.823 467.327L183.876 459.616L184.487 478.026L141.237 479.801Z" fill="#FFB6B6"/>
<path d="M149.052 483.557L149.46 463.584L141.785 463.899L129.394 445.436C128.783 444.524 127.925 443.853 126.946 443.522C125.967 443.191 124.919 443.216 123.954 443.595C122.989 443.973 122.159 444.685 121.583 445.626C121.008 446.567 120.718 447.688 120.756 448.825L121.542 472.551L129.27 476.329L121.731 478.237L122.028 487.182L149.052 483.557Z" fill="#2F2E41"/>
<path d="M383.547 484.658L247.18 488.504C247.18 488.504 188.293 492.288 174.476 482.289L159.907 480.243L159.117 456.435C159.117 456.435 168.026 456.508 173.149 453.853C178.271 451.198 174.711 447.949 179.595 451.143C184.479 454.338 183.963 454.722 187.739 453.254C191.515 451.786 364.674 422.424 364.674 422.424L383.547 484.658Z" fill="#2F2E41"/>
<path d="M203.852 474.326L195.922 465.495L222.77 427.267L234.473 440.302L203.852 474.326Z" fill="#FFB6B6"/>
<path d="M211.877 466.643L199.966 451.693L194.532 457.731L174.16 453.57C173.154 453.364 172.115 453.522 171.195 454.02C170.275 454.517 169.522 455.329 169.046 456.337C168.57 457.344 168.396 458.494 168.55 459.62C168.703 460.745 169.176 461.786 169.899 462.591L184.981 479.389L192.956 476.312L188.596 483.415L194.282 489.748L211.877 466.643Z" fill="#2F2E41"/>
<path d="M437.347 401.576L435.991 436.634C434.395 477.904 393.54 502.882 361.86 481.334C361.276 480.937 360.69 480.526 360.102 480.1C360.102 480.1 348.092 476.512 348.457 470.83C348.821 465.147 345.887 462.382 343.291 463.932C340.694 465.481 306.698 411.808 306.698 411.808C306.698 411.808 236.065 451.004 220.483 460.231C220.483 460.231 205.832 434.748 206.894 435.015C207.957 435.282 294.276 368.072 294.276 368.072C294.276 368.072 308.339 352.239 325.783 362.693C326.146 364.228 325.835 364.282 325.835 364.282L383.459 416.516L391.601 399.315L437.347 401.576Z" fill="#2F2E41"/>
<path d="M383.016 357.749C383.125 359.368 383.332 360.978 383.636 362.567C384.051 364.866 384.72 367.1 385.628 369.216C385.628 369.216 385.628 371.58 389.695 379.496C393.761 387.412 388.678 384.02 385.628 389.9C382.579 395.77 385.628 393.067 389.014 396.844C389.988 397.943 390.68 399.313 391.018 400.81C391.356 402.308 391.327 403.879 390.935 405.36C390.935 405.36 434.607 405.394 442.739 402.001C450.872 398.608 452.722 379.496 445.433 377.608C438.155 375.719 447.639 373.842 451.919 369.488C456.199 365.134 447.639 358.009 447.639 358.009C447.639 358.009 451.167 351.235 450.872 328.493C450.83 326.401 450.657 324.315 450.354 322.25C449.767 318.356 448.886 314.524 447.721 310.794C446.115 305.632 444.206 300.592 442.008 295.708C440.828 293.05 439.619 290.517 438.46 288.188C438.277 287.826 438.104 287.475 437.921 287.125C435.715 282.782 433.702 279.231 432.37 276.958C431.344 275.194 430.724 274.199 430.724 274.199L423.323 259.881L398.62 272.762L400.023 293.831L395.764 309.72L393.802 317.037L392.287 322.68L389.949 331.422C389.949 331.422 390.589 331.456 389.827 332.62C386.316 337.814 384.039 343.909 383.209 350.342C382.916 352.797 382.851 355.279 383.016 357.749Z" fill="#9128E2"/>
<path d="M311.677 360.02L312.141 359.853L371.266 338.672L349.478 259.157C349.045 257.574 348.293 256.121 347.281 254.907C346.269 253.694 345.023 252.752 343.636 252.152C342.249 251.552 340.758 251.311 339.275 251.446C337.792 251.58 336.355 252.088 335.074 252.93L297.291 277.763C294.3 279.727 292.025 282.797 290.862 286.437C289.7 290.078 289.724 294.057 290.931 297.68L311.677 360.02Z" fill="#2F2E41"/>
<path d="M311.437 365.074L371.038 343.724L349.251 264.208C348.817 262.625 348.065 261.172 347.053 259.958C346.041 258.745 344.795 257.803 343.408 257.203C342.021 256.604 340.53 256.362 339.047 256.497C337.563 256.631 336.127 257.139 334.846 257.981L295.259 279.968C289.312 283.876 289.451 293.991 292.212 302.29L311.437 365.074Z" fill="#151515"/>
<path d="M317.404 370.83C318.777 371.691 320.295 372.226 321.863 372.399C323.431 372.573 325.015 372.381 326.513 371.838L364.608 358.19C367.531 357.128 369.964 354.836 371.389 351.805C372.814 348.773 373.116 345.242 372.232 341.966L353.133 272.261C352.751 270.869 352.123 269.575 351.286 268.456C350.449 267.336 349.42 266.415 348.258 265.744C347.097 265.073 345.827 264.667 344.522 264.55C343.218 264.432 341.905 264.606 340.662 265.06L301.184 279.48C299.303 280.167 297.564 281.267 296.072 282.714C294.579 284.16 293.362 285.925 292.493 287.904C291.623 289.883 291.119 292.036 291.01 294.235C290.901 296.434 291.19 298.635 291.858 300.708L312.279 364.042C313.196 366.918 315.016 369.328 317.404 370.83Z" fill="#3F3D56"/>
<path d="M400.017 260.126C384.947 260.126 372.731 246.536 372.731 229.772C372.731 213.007 384.947 199.417 400.017 199.417C415.086 199.417 427.302 213.007 427.302 229.772C427.302 246.536 415.086 260.126 400.017 260.126Z" fill="#FFB6B6"/>
<path d="M492.284 260.583C489.78 265.983 485.675 270.252 480.664 272.668C478.664 273.682 476.561 274.422 474.401 274.873C473.791 272.18 472.814 269.606 471.504 267.242C471.94 269.907 471.94 272.638 471.504 275.303C468.213 275.602 464.903 275.145 461.778 273.96C458.709 272.799 455.926 270.858 453.649 268.292C451.371 265.725 449.663 262.604 448.66 259.175C446.486 251.129 448.827 242.535 449.012 234.137C449.202 225.738 445.616 215.692 438.121 214.653C432.413 213.86 433.119 214.475 429.018 218.961C434.755 226.051 420.768 257.452 413.263 256.065C409.02 255.28 405.898 251.533 405.059 251.663C400.762 263.37 413.688 279.974 403.436 285.425L404.196 284.305C409.563 274.443 393.683 257.785 399.05 247.923C400.546 245.164 402.102 241.929 401.176 238.877C400.297 235.975 395.848 235.057 394.91 237.698C396.436 231.644 392.176 224.539 386.518 223.921C381.492 223.37 381.782 224.963 376.989 226.417C376.377 224.121 375.494 221.924 374.365 219.885C374.747 222.211 374.794 224.591 374.505 226.935C372.776 227.164 371.028 226.752 369.531 225.763C365.105 222.812 364.974 215.193 368.014 210.557C371.06 205.919 376.161 203.629 381.083 201.897C381.128 190.318 409.135 184.774 414.286 195.54C414.816 186.823 423.798 180.951 431.535 182.432C439.273 183.913 445.377 190.815 449.098 198.508C452.819 206.194 454.666 214.801 457.39 222.989C460.114 231.177 464.008 239.341 470.53 244.199C477.052 249.05 486.744 249.491 492.189 243.203C493.431 245.888 494.087 248.861 494.104 251.88C494.12 254.9 493.497 257.881 492.284 260.583Z" fill="#2F2E41"/>
<path d="M464.287 399.391C463.722 398.889 463.11 398.457 462.461 398.104C452.017 392.322 419.539 377.312 394.143 377.928C345.281 379.113 283.097 439.104 297.569 479.389C308.581 510.043 363.329 527.483 403.292 513.535C459.279 493.994 481.377 414.55 464.287 399.391Z" fill="#3F3D56"/>
<path d="M667.136 620.23C683.102 616.879 697.235 536.859 665.822 497.449C655.059 483.946 641.634 478.07 623.777 472.6C520.993 441.121 442.599 471.122 432.064 478.447C421.552 485.755 403.125 595.873 426.689 611.46C439.947 620.23 466.226 624.615 479.246 614.383C498.404 599.328 466.247 560.277 480.56 533.991C496.802 504.162 582.33 494.115 625.21 523.759C670.958 555.387 576.595 639.232 667.136 620.23Z" fill="#5C1792" fill-opacity="0.95"/>
<path d="M560.387 484.178H621.384C636.442 468.125 647.208 452.653 638.589 439.81C638.589 436.119 637.27 432.578 634.924 429.968C632.577 427.358 629.395 425.891 626.076 425.891H555.695C552.377 425.891 549.194 427.358 546.848 429.968C544.501 432.578 543.183 436.119 543.183 439.81C539.901 454.444 545.764 469.235 560.387 484.178Z" fill="#CCCCCC"/>
<path d="M571.342 408.368C571.921 408.398 572.494 408.229 572.983 407.884C573.473 407.539 573.855 407.035 574.078 406.441C574.302 405.846 574.356 405.189 574.233 404.56C574.109 403.93 573.815 403.357 573.39 402.92L573.196 402.064C573.222 401.995 573.247 401.927 573.273 401.858C573.856 400.326 574.833 399.02 576.081 398.104C577.329 397.187 578.793 396.702 580.289 396.708C581.784 396.714 583.245 397.212 584.487 398.138C585.729 399.065 586.697 400.379 587.27 401.916C589.559 408.05 592.474 414.194 593.191 420.679C593.508 423.546 593.374 426.452 592.797 429.268C598.174 416.22 600.966 402.038 600.984 387.684C600.985 384.083 600.805 380.483 600.445 376.904C600.148 373.969 599.735 371.056 599.207 368.163C596.325 352.468 590.137 337.757 581.152 325.238C576.804 322.599 573.287 318.539 571.076 313.608C570.275 311.835 569.709 309.943 569.395 307.989C569.886 308.061 571.245 299.75 570.875 299.24C571.558 298.086 572.782 297.512 573.529 296.386C577.242 290.785 582.358 291.763 585.029 299.374C590.734 302.577 590.789 307.89 587.289 312.999C585.061 316.25 584.755 320.649 582.801 324.129C583.002 324.415 583.211 324.692 583.412 324.979C587.088 330.236 590.291 335.881 592.976 341.834C592.323 335.165 593.102 328.42 595.25 322.152C597.427 316.31 601.507 311.39 605.1 306.34C609.415 300.274 618.265 302.922 619.025 310.611C619.032 310.686 619.04 310.76 619.047 310.834C618.513 311.169 617.991 311.525 617.479 311.901C616.837 312.378 616.34 313.06 616.052 313.857C615.764 314.654 615.7 315.53 615.867 316.368C616.034 317.207 616.425 317.97 616.988 318.558C617.552 319.145 618.262 319.529 619.025 319.66L619.103 319.673C618.913 321.813 618.577 323.934 618.098 326.017C622.707 345.846 612.756 353.068 598.547 353.393C598.234 353.572 597.928 353.751 597.614 353.921C600.312 362.426 602.005 371.286 602.649 380.277C603.013 385.581 602.992 390.91 602.585 396.21L602.609 396.023C603.638 390.128 606.465 384.81 610.611 380.966C616.768 375.338 625.468 373.266 632.112 368.743C632.818 368.239 633.639 367.969 634.478 367.967C635.317 367.965 636.139 368.23 636.847 368.73C637.555 369.23 638.12 369.946 638.475 370.791C638.829 371.637 638.959 372.578 638.849 373.504C638.84 373.569 638.831 373.635 638.822 373.701C637.832 374.15 636.868 374.667 635.935 375.249C635.401 375.584 634.879 375.939 634.368 376.315C633.726 376.793 633.228 377.474 632.94 378.272C632.653 379.069 632.588 379.944 632.755 380.783C632.922 381.622 633.313 382.385 633.876 382.972C634.44 383.559 635.15 383.944 635.913 384.075L635.991 384.088C636.048 384.097 636.096 384.106 636.152 384.115C634.46 388.609 632.085 392.746 629.131 396.345C626.249 413.655 613.871 415.297 600.63 410.256H600.622C599.169 417.279 597.065 424.115 594.341 430.654H571.904C571.824 430.377 571.751 430.091 571.679 429.813C573.756 429.958 575.841 429.82 577.887 429.402C576.223 427.129 574.558 424.839 572.893 422.567C572.856 422.524 572.821 422.479 572.789 422.432C571.944 421.269 571.092 420.115 570.247 418.952L570.247 418.951C570.202 415.386 570.57 411.829 571.341 408.369L571.342 408.368Z" fill="#F2F2F2"/>
<path d="M494.813 480.543C494.44 481.748 493.734 482.791 492.796 483.522C491.858 484.253 490.735 484.635 489.59 484.612L467.213 483.972C466.059 483.947 464.944 483.507 464.033 482.718C463.122 481.929 462.466 480.834 462.161 479.596L458.995 441.927C457.871 442.493 456.648 442.773 455.415 442.745C453.251 442.685 451.198 441.671 449.706 439.926C448.215 438.181 447.407 435.849 447.462 433.442C447.516 431.035 448.427 428.751 449.996 427.091C451.564 425.432 453.661 424.534 455.824 424.594C456.317 424.593 456.809 424.65 457.291 424.764C457.815 424.133 458.452 423.631 459.161 423.291C459.87 422.951 460.636 422.779 461.408 422.788L495.829 423.777C496.114 423.788 496.398 423.828 496.678 423.894C497.433 424.051 498.149 424.385 498.777 424.875C499.406 425.365 499.933 426 500.323 426.736C500.713 427.471 500.957 428.292 501.038 429.141C501.12 429.99 501.036 430.849 500.794 431.66L494.813 480.543ZM458.345 439.37L456.092 430.393C455.836 429.356 455.83 428.263 456.075 427.222C455.965 427.222 455.869 427.164 455.76 427.164C454.215 427.129 452.72 427.776 451.604 428.965C450.488 430.153 449.841 431.786 449.805 433.504C449.768 435.222 450.346 436.887 451.411 438.132C452.476 439.377 453.942 440.102 455.486 440.147C456.485 440.182 457.473 439.913 458.345 439.37Z" fill="#E4D6D6"/>
<path d="M496.678 423.894C495.944 428.559 487.7 431.838 477.786 431.268C468.67 430.801 461.216 427.239 459.85 423.019C460.355 422.853 460.881 422.775 461.408 422.788L495.829 423.777C496.114 423.788 496.398 423.828 496.678 423.894Z" fill="white"/>
<path d="M754.802 621.996L1.19836 622.34C0.880554 622.34 0.575745 622.2 0.351013 621.95C0.126282 621.7 0 621.36 0 621.007C0 620.653 0.126282 620.314 0.351013 620.064C0.575745 619.814 0.880554 619.674 1.19836 619.674L754.802 619.33C755.119 619.33 755.424 619.47 755.649 619.72C755.874 619.97 756 620.309 756 620.663C756 621.016 755.874 621.355 755.649 621.605C755.424 621.856 755.119 621.996 754.802 621.996Z" fill="#CACACA"/>
<path d="M332.129 324.047C334.178 324.13 336.118 325.1 337.534 326.749C338.951 328.399 339.733 330.598 339.714 332.88C339.704 333.343 339.659 333.805 339.58 334.261L363.231 349.794L360.368 365.918L330.038 340.742C328.365 340.232 326.892 339.121 325.848 337.581C324.803 336.041 324.246 334.16 324.263 332.232C324.283 331.134 324.496 330.052 324.892 329.046C325.287 328.041 325.857 327.132 326.568 326.371C327.279 325.61 328.118 325.013 329.037 324.613C329.956 324.213 330.936 324.018 331.923 324.04C331.992 324.041 332.06 324.044 332.129 324.047Z" fill="#FFB6B6"/>
<path d="M351.503 361.078C352.136 360.135 352.408 359.74 352.552 359.849C352.922 360.097 352.566 363.428 355.171 369.235C358.838 377.391 397.286 389.884 397.286 389.884L402.02 380.243L422.841 337.875L430.018 303.916C430.269 302.732 430.391 301.518 430.381 300.302C423.983 295.292 417.187 290.941 410.079 287.301C407.239 289.094 405.074 291.963 403.98 295.386L389.647 340.093L383.927 357.943C383.927 357.943 373.838 349.917 370.178 351.391C366.525 352.873 365.486 350.795 367.875 344.141C370.263 337.487 366.678 344.336 362.506 344.771C358.326 345.213 362.506 344.771 360.532 341.948C358.558 339.125 345.792 337.536 345.792 337.536L345.521 338.166L340.574 349.486L339.158 352.739C339.158 352.739 344.402 359.069 345.668 360.33C346.939 361.601 347.332 361.513 346.709 362.961C346.095 364.402 349.306 364.337 351.503 361.078Z" fill="#9128E2"/>
</g>
<defs>
<clipPath id="clip0_2_81">
<rect width="756" height="623" fill="white" transform="matrix(-1 0 0 1 756 0)"/>
</clipPath>
</defs>
</svg>
